<?xml version="1.0" encoding="UTF-8" standalone="no"?>
<svg xmlns:rdf="http://www.w3.org/1999/02/22-rdf-syntax-ns#" xmlns="http://www.w3.org/2000/svg" height="109.02437" width="421.67526" version="1.1" xmlns:cc="http://creativecommons.org/ns#" xmlns:dc="http://purl.org/dc/elements/1.1/" viewBox="0 0 421.67526 109.02437"><path d="M305.29755,72.833c-9.69814,0-18.23253,6.40078-18.23253,17.55366,0,11.24983,8.53439,17.55361,18.23253,17.55361s18.23251-6.30378,18.23251-17.55361C323.53006,79.23381,314.99569,72.833,305.29755,72.833Zm0,25.50613c-4.65512,0-7.37059-3.39433-7.37059-7.95247,0-4.46114,2.71547-7.95247,7.37059-7.95247s7.37056,3.68526,7.37056,7.95247C312.66811,94.75087,309.95264,98.33916,305.29755,98.33916Zm-20.851-27.73669a15.48219,15.48219,0,0,0-15.71094-15.22608H249.6302v51.40014h11.05588V64.20168H266.408a6.962,6.962,0,0,1,7.27361,6.49779v.29093c0,3.6853-3.39436,6.6917-7.46757,6.6917h-2.61851V89.99875l11.15285,16.77778h13.09251L272.51783,85.34366a15.31835,15.31835,0,0,0,12.0257-14.74119Zm82.91915,12.21968c.58187-3.58834,7.07966-1.45474,9.0193-.48494l3.49129-7.37058a20.60141,20.60141,0,0,0-15.90495-.87282c-6.49773,2.61851-9.50418,12.51061-3.58831,17.16573,2.71547,2.13355,6.8857,2.13355,9.11625,3.97622a2.52675,2.52675,0,0,1,.097,3.39434,2.01249,2.01249,0,0,1-.96982.58189c-3.0064,1.35773-7.56454-1.45472-9.98908-3.00643-1.26078,2.71549-2.61851,5.431-3.78227,8.14643,8.92228,6.40078,25.894,4.9461,25.894-8.43736,0-11.34684-14.25626-8.14643-13.38344-12.9955ZM403.44271,72.833c-9.69815,0-18.23246,6.30383-18.23246,17.55366s8.53431,17.55361,18.23246,17.55361,18.23255-6.40076,18.23255-17.55361S413.23788,72.833,403.44271,72.833Zm0,25.40913c-4.65507,0-7.37054-3.39433-7.37054-7.85547s2.71547-7.95247,7.37054-7.95247,7.37063,3.58829,7.37063,7.95247S408.19485,98.24216,403.44271,98.24216Zm-64.97751-15.42c.58187-3.58834,7.07963-1.45474,9.01923-.48494l3.39439-7.37058a20.57777,20.57777,0,0,0-15.905-.87282c-6.49777,2.61851-9.50417,12.51061-3.58834,17.16573,2.71551,2.13355,6.88569,2.13355,9.11628,3.97622a2.52676,2.52676,0,0,1,.097,3.39434,2.012,2.012,0,0,1-.96982.58189c-3.00643,1.35773-7.56457-1.45472-9.9891-3.00643-1.16376,2.71549-2.52149,5.334-3.68527,8.14643,8.92227,6.30383,25.79705,4.9461,25.79705-8.43736C351.75164,84.47082,337.59238,87.67122,338.4652,82.82215Z" fill="#ec1b34"/><path d="M168.94166,77.6821a9.20805,9.20805,0,0,0-.96983,1.64866V77.6821H60.41944V92.52024H229.846L240.51393,77.6821Z" fill="#ec1b34"/><path d="M98.43614,67.30511H87.76819v-10.862H120.257v10.862H109.589v39.47142H98.43614Zm102.70335,15.0321c4.65509,0,7.37056,3.6853,7.37056,8.04943,0,4.26721-2.71547,7.85552-7.37056,7.85552s-7.37059-3.39433-7.37059-7.85552C193.7689,85.82855,196.48437,82.33721,201.13949,82.33721Zm0-9.60116c-9.69814,0-18.23253,6.40076-18.23253,17.55364,0,11.24985,8.53439,17.55364,18.23253,17.55364S219.372,101.44252,219.372,90.28969,210.83763,72.73605,201.13949,72.73605Zm-67.69306,9.60116c4.65513,0,7.3706,3.6853,7.3706,8.04943,0,4.26721-2.71547,7.85552-7.3706,7.85552s-7.37058-3.39433-7.37058-7.85552C126.07585,85.82855,128.79133,82.33721,133.44643,82.33721Zm0-9.60116c-9.69813,0-18.23249,6.40076-18.23249,17.55364,0,11.24985,8.53436,17.55364,18.23249,17.55364s18.23252-6.40081,18.23252-17.55364S143.14457,72.73605,133.44643,72.73605Zm34.5254,1.16378H156.819v32.8767h11.15288V93.49007c0-5.62492,1.06678-9.8921,6.98265-9.8921a7.48133,7.48133,0,0,1,4.55814,1.16378V73.51192H177.379a9.86412,9.86412,0,0,0-9.40719,5.81884Z" fill="#d0d2d3"/><path d="M292.593,44.70844a2.45718,2.45718,0,0,1-2.03661-1.45473q-.291-.29094-.58186-.58192a3.70512,3.70512,0,0,0-.87282-.87282,5.54068,5.54068,0,0,1-.67889-.77584,4.80031,4.80031,0,0,1-.38791-1.26076q-.14555-.43639-.291-.87285v-.194c-.19393-.38791-.38791-.9698-.87279-1.0668a2.98983,2.98983,0,0,1-.96983-.097,2.28363,2.28363,0,0,1-2.03662-.77582,1.48848,1.48848,0,0,1,0-1.55174,1.798,1.798,0,0,0,.194-.67886,6.6678,6.6678,0,0,0,.194-3.10341c0-.097-.097-.29093-.097-.38791a1.91836,1.91836,0,0,1-.194-1.0668.5039.5039,0,0,1,.38794-.194.58315.58315,0,0,1,.38793.097l.38794.097a7.20209,7.20209,0,0,0,4.26718-.38791,5.25177,5.25177,0,0,0,3.10338-4.65512c-.29093-2.1336-1.64867-4.26718-4.17018-6.40076l-.194-.194c-.29093-.29095-.67887-.58189-.67887-.87282-.097-.29095.77587-.48491,1.26076-.67889h.388a6.19779,6.19779,0,0,0,1.84262-.77584,4.30458,4.30458,0,0,0,1.55169-4.55814v-.097c0-.09695-.09695-.29093-.194-.29093h-.097l-.194.097a1.508,1.508,0,0,1-.77587.58189,4.64753,4.64753,0,0,1-1.9396.67887c-.38793.097-.87284.194-1.26075.291A4.90985,4.90985,0,0,0,284.73748,15.42a2.67361,2.67361,0,0,0,.29094,2.1336,14.47334,14.47334,0,0,0,2.23058,2.61849c1.35773,1.26076,2.71549,2.52151,3.00642,4.26721a2.54688,2.54688,0,0,1-1.26078,2.61849,4.07368,4.07368,0,0,1-2.03658.58186,6.72715,6.72715,0,0,1-2.71546-.77582,32.70537,32.70537,0,0,1-3.10343-1.84267,22.7238,22.7238,0,0,0-4.7521-2.61849,10.22675,10.22675,0,0,0-2.32755-.58189,9.54988,9.54988,0,0,1-3.29736-1.16378,8.38532,8.38532,0,0,0-.96983-.67886,8.28312,8.28312,0,0,0-2.71546-1.55172,4.12481,4.12481,0,0,0-1.06681-.19395,2.93065,2.93065,0,0,1-1.55171-.48492l-.67884-.48491A20.64484,20.64484,0,0,0,261.365,15.711a19.19978,19.19978,0,0,0-4.55814-1.45471,2.48236,2.48236,0,0,1-1.26075-.96983,2.9526,2.9526,0,0,0-.77587-.77584,6.00712,6.00712,0,0,0-3.97623-1.74567h-.38793a4.62358,4.62358,0,0,0-2.13358,1.16378l-.194.194a25.30982,25.30982,0,0,0-3.97622-4.55814,28.27773,28.27773,0,0,0-38.50162,0,25.21742,25.21742,0,0,0-3.68532,4.1702l-.29093-.194a6.08921,6.08921,0,0,0-1.84265-.29093,6.66609,6.66609,0,0,0-2.32755.48488,9.69007,9.69007,0,0,1-1.35776.77585,7.3242,7.3242,0,0,1-2.23056,1.26076,17.48621,17.48621,0,0,1-2.0366.77586,9.01733,9.01733,0,0,0-3.78229,1.74565l-.77585.67889c-1.06678.9698-1.16378,1.06678-1.93962,1.06678a6.27351,6.27351,0,0,0-4.65512,1.64869,12.05513,12.05513,0,0,1-3.39433,2.42453,13.38865,13.38865,0,0,1-1.93965.291,14.71387,14.71387,0,0,0-2.0366.29093,12.28958,12.28958,0,0,0-4.07322,2.42454,8.85856,8.85856,0,0,1-1.26077.96982c-.097.097-.29093.097-.38791.194a8.94621,8.94621,0,0,1-4.84907,1.74567h-.194a3.484,3.484,0,0,1-3.00641-2.23056,3.99486,3.99486,0,0,1,1.06679-4.07323c.58189-.48491,1.16378-1.0668,1.74567-1.55171a11.91464,11.91464,0,0,0,2.52151-2.42454,2.913,2.913,0,0,0-.194-3.49133,8.58834,8.58834,0,0,0-3.29737-1.55169h-.38791c-.48492-.097-.87284-.097-1.26078-.194A14.14378,14.14378,0,0,1,156.819,10.8619a2.483,2.483,0,0,0-.38794,1.84267,4.91282,4.91282,0,0,0,2.71548,3.58829l.097.097a6.5486,6.5486,0,0,0,1.35774.194H161.959a1.02536,1.02536,0,0,1,.58188.67886.83819.83819,0,0,1-.29094.58189l-.67887.48491a20.654,20.654,0,0,0-3.29737,3.20038,5.26227,5.26227,0,0,0-.77584,5.431,5.72089,5.72089,0,0,0,4.65509,3.39433c.291,0,.67889.097.96982.097a16.18062,16.18062,0,0,0,3.00643-.48491h.097s.097,0,.097.194a6.40207,6.40207,0,0,0,.097,1.35773,11.736,11.736,0,0,0,.097,1.84265,16.70944,16.70944,0,0,0,.67887,2.03658v.291a.93025.93025,0,0,1-.194.87285,6.61547,6.61547,0,0,1-2.52151,1.16375,4.30263,4.30263,0,0,0-1.26076.194h-.38791a.38722.38722,0,0,0-.38794.194,3.37432,3.37432,0,0,0-.67886,1.45472,11.38238,11.38238,0,0,1-.48491,1.0668,5.31905,5.31905,0,0,1-2.1336,1.74564l-.58187.29093a6.88412,6.88412,0,0,1-.96983,1.35779,2.37638,2.37638,0,0,1-1.16378.38791,5.63718,5.63718,0,0,0-.87282,2.42453.73312.73312,0,0,0-.097.38791v.194h.097a2.68548,2.68548,0,0,1,.87282.097,6.54624,6.54624,0,0,0,1.35775.194,1.669,1.669,0,0,0,1.16377-.194,2.91555,2.91555,0,0,0,1.0668-1.35774,5.33157,5.33157,0,0,1,.67887-.87282,1.04,1.04,0,0,1,.58189-.194,1.64967,1.64967,0,0,1,.67887.097,1.43841,1.43841,0,0,0,.67887.09695,3.75885,3.75885,0,0,0,2.52153-.9698,2.57211,2.57211,0,0,0,.58187-.48489,7.87079,7.87079,0,0,1,.96982-.87284,2.87638,2.87638,0,0,1,1.55171-.194,8.26587,8.26587,0,0,1,2.23056.29093,4.72181,4.72181,0,0,0,1.16379.097,3.80394,3.80394,0,0,0,1.74565-.38791,8.66647,8.66647,0,0,1,1.55172-.87285l.77584-.38793a5.68567,5.68567,0,0,0,1.64869-2.32753,12.44649,12.44649,0,0,0,.67887-1.55174l-.96982-.67887a8.78841,8.78841,0,0,1-1.06681,1.55171c-1.64867,2.32756-4.46113,2.6185-6.69171,2.6185h-.4849a8.148,8.148,0,0,0-6.59474,2.81247H161.959v-.29094a.73516.73516,0,0,1,.194-.38793c1.74567-2.52151,4.65513-2.81247,7.07966-2.90942a10.48872,10.48872,0,0,0,4.17019-.96985,6.4733,6.4733,0,0,0,2.81247-3.58829,12.70131,12.70131,0,0,0,.58188-2.61852,15.05647,15.05647,0,0,1,.38794-2.0366c0-.097.097-.097.194-.097s.29094,0,.29094.194a7.9437,7.9437,0,0,0,0,4.75209,1.69346,1.69346,0,0,0,1.84264.87285,11.88079,11.88079,0,0,0,1.84267-.194c.48489-.09695.87283-.09695,1.35774-.194h.48488q1.16377.14554,2.32756.291a6.25408,6.25408,0,0,0,1.93963.29093h1.0668a2.1652,2.1652,0,0,0,1.35773-.29093c.194-.194.097-.38793,0-.77587v-.194c-.194-.388-.38791-.96983,0-1.26078h.097c.097-.097.194,0,.194.097l.097.29093a4.284,4.284,0,0,0,.58189,1.55169,10.43488,10.43488,0,0,0,3.1034,2.32758,4.082,4.082,0,0,1,1.93965,2.90945c0,.58189-.58192,1.0668-1.0668,1.35773a7.59067,7.59067,0,0,1-2.42454.67885h-.291a4.3717,4.3717,0,0,1-1.64869-1.84263,8.08692,8.08692,0,0,0-.77584-1.16377,2.12694,2.12694,0,0,0-1.64869-.6789,16.44738,16.44738,0,0,0-2.13358.38794.30968.30968,0,0,0-.291.291.4329.4329,0,0,0,0,.48491,20.52019,20.52019,0,0,1,1.0668,2.0366l.194.29093a.74071.74071,0,0,0,.48491.194h.77584a.88039.88039,0,0,1,.67887.291l.38794.58186a3.15068,3.15068,0,0,0,.96982,1.26076,2.17131,2.17131,0,0,0,1.64869.58191,2.68443,2.68443,0,0,0,.87282-.097,26.60245,26.60245,0,0,0,5.237-2.0366h.96983a2.20234,2.20234,0,0,0,1.55171-.58191l.48489-.67885a28.45064,28.45064,0,0,0,47.327.29094.53343.53343,0,0,0,.29093.48493.69125.69125,0,0,0,.58189.29094h1.06678a1.23682,1.23682,0,0,1,.67889.48488,1.50849,1.50849,0,0,0,.77587.58192c.58186.194,1.16375.29093,1.74564.48488a14.99139,14.99139,0,0,1,2.23058.67887,3.4224,3.4224,0,0,0,1.35774.29093,2.04239,2.04239,0,0,0,1.26076-.48491,2.62006,2.62006,0,0,0,.96982-1.64866c.097-.67885.29093-.67885.77584-.77587.097.097.291,0,.48492,0a5.331,5.331,0,0,0,1.26075-1.64867,2.12045,2.12045,0,0,0,.29094-.48489c.097-.097.097-.194.097-.38793s-.194-.48491-.38794-.48491h-2.71549c-.77584,0-1.16375.87284-1.45471,1.55171-.097.29093-.194.48491-.29093.77584a1.38258,1.38258,0,0,1-1.16381.58189,1.40159,1.40159,0,0,1-.67884-.194,3.14387,3.14387,0,0,1-2.61852-1.55169.98919.98919,0,0,1,.194-.87284,10.1307,10.1307,0,0,1,2.03658-2.03658,4.47108,4.47108,0,0,0,2.71549-2.03665c.194-.19393.194-.38788.291-.58186a1.33272,1.33272,0,0,1,.48489-.77587.18583.18583,0,0,1,.291.097,2.51487,2.51487,0,0,1-.291,1.64867l-.097.29093v.097h.96982a18.02806,18.02806,0,0,0,3.20038-.38793,30.13227,30.13227,0,0,1,3.10341-.38794h.291a7.33867,7.33867,0,0,1,1.45472.097,5.53,5.53,0,0,0,1.26075.097h.48491a2.74973,2.74973,0,0,0,2.7155-1.64867,11.02812,11.02812,0,0,0-.097-4.36418v-.19395a.30042.30042,0,0,1,.097-.194.35624.35624,0,0,1,.29093.097v.097a20.97176,20.97176,0,0,1,.96982,4.26715,11.102,11.102,0,0,0,1.45472,3.49134,5.218,5.218,0,0,0,4.46116,2.23058,5.67633,5.67633,0,0,0,1.26073-.194h.58189a7.44053,7.44053,0,0,1,5.9159,3.0064v.097l-.097.097h-.097l-.194-.194A8.57387,8.57387,0,0,0,282.119,41.508a3.63945,3.63945,0,0,0-.96982-.09695,6.42368,6.42368,0,0,0-1.45471.09695,6.86918,6.86918,0,0,1-1.35774.097,4.02007,4.02007,0,0,1-1.55171-.291,7.58212,7.58212,0,0,1-4.07323-4.55809c0-.097-.097-.097-.19395-.097h-.194c-.194.097-.291.194-.291.38793.097.48489.194.9698.291,1.55169a4.1473,4.1473,0,0,0,2.03662,3.29738l.48492.29094a4.04284,4.04284,0,0,0,2.32753.87284h.58189a3.69692,3.69692,0,0,1,1.45473-.097,7.57776,7.57776,0,0,1,4.6551,1.64866c.194.097.388.29094.67889.48489a2.35109,2.35109,0,0,0,.96977.58191,1.40189,1.40189,0,0,0,.67889.194,2.75053,2.75053,0,0,0,1.26076-.38791c.194-.097.29093-.194.48489-.194.48494,0,.77587.38793,1.16383.87282a3.79671,3.79671,0,0,0,.77582.96985,2.09048,2.09048,0,0,0,1.64871.48491h1.74565a9.32059,9.32059,0,0,0-.77587-2.81249ZM249.6302,16.87477a.7407.7407,0,0,1,.48492-.194.53335.53335,0,0,1,.48491.291.75205.75205,0,0,1-.194.9698l-.67887.58191A12.97246,12.97246,0,0,0,247.4966,20.948a5.22417,5.22417,0,0,0-.67884,1.26073.33866.33866,0,0,1-.194.097h-.097a3.27373,3.27373,0,0,1,.194-1.93964A7.76213,7.76213,0,0,1,249.6302,16.87477Zm-49.46054,2.0366a.7409.7409,0,0,1,.48492-.194h.29093a2.64778,2.64778,0,0,1,.87285,1.16381,6.277,6.277,0,0,1,.097,3.78227v.097c-.097.097-.097.097-.194.097,0,0-.09695,0-.09695-.194a17.57206,17.57206,0,0,0-.87282-3.00643,2.02876,2.02876,0,0,0-.388-.58189c-.194-.38793-.48489-.67886-.194-1.0668Zm52.176,17.7476-1.55169,2.1336a5.14477,5.14477,0,0,0-.77584,1.64867,4.69784,4.69784,0,0,0,0,1.64869v.097a.095.095,0,0,1-.097-.097,3.05813,3.05813,0,0,1-.48492-2.71549c.194-.48492,1.45474-2.23056,1.84265-2.81242.097-.194.194-.388.097-.48494a3.67548,3.67548,0,0,0-1.26075-.58187,1.16849,1.16849,0,0,0-.48492.48489l-.097.097-1.84265,3.39436v.194a1.11191,1.11191,0,0,0-.097.96983,2.2835,2.2835,0,0,0,.19393.77587A27.00781,27.00781,0,0,1,224.803,54.30959a26.60605,26.60605,0,0,1-22.88763-12.8985v-.097a2.10112,2.10112,0,0,0,0-2.13355,13.12184,13.12184,0,0,1-1.64869-3.29739l-.38791-.194a2.83135,2.83135,0,0,0-.87284-.194.64927.64927,0,0,0-.67885.38791l1.9396,3.78227a2.2735,2.2735,0,0,1,.194,1.06681,6.57139,6.57139,0,0,1-1.35773,2.23058h-.097s-.194,0-.097-.194a12.0371,12.0371,0,0,0,.291-2.61851A22.43687,22.43687,0,0,0,197.4542,36.756a2.31718,2.31718,0,0,1-.48492-1.35778.41714.41714,0,0,1,.38794-.38789l.87282-.291a2.59476,2.59476,0,0,0,1.64869-.67889,10.32256,10.32256,0,0,0,1.55169-4.17018s.097-.194.194-.194.09695,0,.09695.194a6.11831,6.11831,0,0,1-1.06677,4.6551c0,.097-.097.29095,0,.38793,0,.097.097.194.097.29093a4.0893,4.0893,0,0,0,2.81244-.48489,15.85533,15.85533,0,0,0,2.13358-.194l.6789-.097c.097,0,.097,0,.097.097a4.28672,4.28672,0,0,0-1.0668,2.32758l-.58189.48489a3.34307,3.34307,0,0,0-1.35773,2.0366.25715.25715,0,0,0,.29093.291.35634.35634,0,0,0,.291-.097h.38791a.20858.20858,0,0,1,.194.19395l-.77587,1.0668a1.65265,1.65265,0,0,0,0,1.35774c.097.29093,0,.48488.194.67886a1.39782,1.39782,0,0,0,1.26075.77587,8.59894,8.59894,0,0,0,2.7155-.67886l.38791-.194a6.47655,6.47655,0,0,1,3.58831-.194,4.91422,4.91422,0,0,0,2.90942-1.64869,1.79885,1.79885,0,0,1,1.16381.67889,6.16289,6.16289,0,0,0,4.75207,2.0366h.38793a.30969.30969,0,0,0,.291-.291c0-.194-.194-.29094-.291-.38791l-1.16378-.58192a4.59454,4.59454,0,0,1-2.0366-2.03657,11.90184,11.90184,0,0,0-1.16378-2.52157c-.097-.09695-.194-.29093-.291-.38788-.097-.194-.291-.48494-.38791-.67887a4.79918,4.79918,0,0,1,2.61849,2.71547,5.0595,5.0595,0,0,0,3.58831,2.32753c.194,0,.38791-.09695.58189-.09695q.14547,0,.29093-.29093c0-.097,0-.194-.194-.291l-.87285-.38791a7.50678,7.50678,0,0,1-2.52151-2.7155,7.231,7.231,0,0,0-.67887-1.16375c-.194-.29093-.48489-.48491-.67887-.77587a1.16863,1.16863,0,0,1-.48491-.48491,35.97765,35.97765,0,0,1-2.32756-9.11626,6.59951,6.59951,0,0,0-.77584-2.32755,58.44428,58.44428,0,0,0-4.75209-6.20681l-.38791-.38791-5.8189-4.84907-.67887-.48494a32.2771,32.2771,0,0,1,3.49132-3.78227,26.63444,26.63444,0,0,1,36.27108,0,24.18037,24.18037,0,0,1,3.87925,4.46116c-1.06681.87283-2.23058,1.64869-3.29736,2.42454a55.25661,55.25661,0,0,0-6.8857,5.72189c-2.0366,2.13361-2.71547,4.75212-3.49131,7.27361l-.291,1.1638a15.501,15.501,0,0,0-.48489,2.0366c-.96982,3.78227-1.93964,7.46759-5.62494,9.89213l-.194.194V41.896a.33855.33855,0,0,1,.194.097,3.29012,3.29012,0,0,0,3.29736-.96982c.77587-1.26076,1.64869-2.32756,2.52151-3.49134.097,0,.194-.09695.291-.09695s.097.09695.097.19393a3.80558,3.80558,0,0,1-.77585,1.35778,5.92328,5.92328,0,0,0-.67886,1.35774,7.89748,7.89748,0,0,1-2.32756,2.71546.20858.20858,0,0,0-.194.194l-.097.097c0,.291.194.38791.48488.38791,2.13361,0,3.58832-1.45469,5.043-2.90943.097,0,.194-.097.291-.097h.194c.194.194.38794.29093.48491.48491a5.21018,5.21018,0,0,0,1.55172.9698,17.31326,17.31326,0,0,1,2.23055-.194h.58189c.6789.194,1.45474.48489,2.23058.77587.48492.194,1.06678.38791,1.55172.58187.77584,0,1.26075-.6789,1.64866-1.26076a2.36326,2.36326,0,0,0,0-1.16378,1.65061,1.65061,0,0,1-.097-.67889h.96982a.37056.37056,0,0,0,.29093-.48489A3.69008,3.69008,0,0,0,245.46,38.1137a3.805,3.805,0,0,1-.77585-1.35773,5.50335,5.50335,0,0,0-1.16377-1.74567,4.59465,4.59465,0,0,1-1.16378-1.84267v-.194h.194c.291.194.48491.388.77587.58192a5.76112,5.76112,0,0,0,2.61849,1.45473,14.61,14.61,0,0,0,2.90942.09695.35635.35635,0,0,0,.291-.09695c0-.097.097-.194.097-.291v-.097a9.32123,9.32123,0,0,1-1.0668-2.71547,7.641,7.641,0,0,1-.194-4.17021.20858.20858,0,0,1,.194-.194c.194.097.29093.194.29093.38791v.194c.097,2.03665.29094,3.8793,1.55172,5.528a3.08258,3.08258,0,0,0,1.16375,1.0668,3.2276,3.2276,0,0,1,.96983.58189,1.45014,1.45014,0,0,1,.097,1.26079Zm-41.31408,1.64869a.61827.61827,0,0,1,.58189,0c.29095.097.097.87285.097.96982a.83822.83822,0,0,1-.291.58189,2.98673,2.98673,0,0,1-1.26074.29094c-.38793,0-.58188-.097-.58188-.194-.097-.097,0-.38791,0-.38791a2.64842,2.64842,0,0,1,1.35773-1.35774Zm-.87283-7.66152a2.9045,2.9045,0,0,1,.38791-.96985,5.71839,5.71839,0,0,1,.38794-.77584.7293.7293,0,0,1,.67887-.48489.86379.86379,0,0,1,.77584.48489,2.57226,2.57226,0,0,1,.48494.58191q.29089.43641.58186.8728a4.04613,4.04613,0,0,1,.87285,1.55174,2.76793,2.76793,0,0,1,0,1.26073,1.37806,1.37806,0,0,1-.194.58189c0,.194-.194.29093-.38791.29093-.291,0-.291-.38791-.291-.38791a5.72364,5.72364,0,0,0-.194-1.35773c-.194-.48491-1.16378-1.64867-1.74567-1.64867a1.50813,1.50813,0,0,0-.77585.58187c-.29093.38791-.29093.48493-.38793.58189-.097,0-.194,0-.291-.29094a1.34573,1.34573,0,0,1,0-.87282Zm29.7733,1.35774a.96791.96791,0,0,1-.38791-.48492c-.194-.194-.291-.38793-.58191-.38793-.194.097-.48489.194-.67887.29093l-.67887.58192a3.05194,3.05194,0,0,0-1.26075,1.64866l-.097.38791a.69126.69126,0,0,1-.291.58192h-.097a.41714.41714,0,0,1-.38791-.38794A3.54357,3.54357,0,0,1,236.5377,31.228a7.29115,7.29115,0,0,0,1.45474-1.55172,5.38047,5.38047,0,0,0,.58189-.77584c.29093-.194.48488,0,.96982.48491a11.05592,11.05592,0,0,1,.96978,1.84265.43287.43287,0,0,1,0,.48493.5333.5333,0,0,1-.48489.29094Zm0,8.04942a.43163.43163,0,0,1-.58189.194.92327.92327,0,0,1-.67887-.194,1.56372,1.56372,0,0,1-.58191-1.26073c-.097-.194,0-.291.097-.38793a.18186.18186,0,0,1,.291,0,1.56366,1.56366,0,0,1,1.26073.58191s.48491.67884.194,1.16376Zm16.87477,0h-2.03662a4.15547,4.15547,0,0,0-.48491,1.55174c.097.67887.77584.8728,1.26078.9698h.58186a.73319.73319,0,0,0,.77587-.29093,8.05038,8.05038,0,0,0,.58187-2.03665v-.194a.73517.73517,0,0,0-.38791-.19393Zm35.10726.77587-.19393-.097a.35633.35633,0,0,0-.291-.097,1.5016,1.5016,0,0,0-1.06681.77587,3.25907,3.25907,0,0,0,.96985,1.55169l.097.097a1.64942,1.64942,0,0,0,.96985.58189.88209.88209,0,0,0,.77584-.38793c.29093-.194.67884-.67887.48489-.9698a6.67566,6.67566,0,0,0-1.26073-1.0668,2.02892,2.02892,0,0,0-.58189-.38794Zm4.1702,5.431c-.097-.194-.097-.388-.194-.48494,0-.29093-.097-.48491-.097-.67889a2.86933,2.86933,0,0,0-.194-.96977.932.932,0,0,0-.87285-.58192c-.194,0-.29093,0-.38794.097-.58186.194-.87282.58187-.77584,1.0668a11.02254,11.02254,0,0,1,.58191,2.42454c0,.19393.19393.58187.38791.58187l1.55169-.48492c.097,0,.097-.09695.194-.194.097-.194-.09695-.48489-.29093-.87285Zm-104.73992-5.334a5.75966,5.75966,0,0,1,.38791.77587c.29093.48489.38793.96977.67889.96977h.29093a2.70765,2.70765,0,0,0,1.74565-.58186.40568.40568,0,0,0,0-.67884l-.097-.291c-.097-.194-.194-.48489-.29095-.67887-.097-.58187-.29094-.9698-.77585-.87282a18.938,18.938,0,0,1-2.23055.19395s-.291,0-.388.097c-.097.19393.097.38789.291.58187l.38794.38793Zm-35.68918,2.42454a1.37855,1.37855,0,0,0,.5819.194c.194,0,.29093,0,.38791-.097a4.48632,4.48632,0,0,0,1.74567-2.03657c.097-.194-.194-.48494-.58188-.67889a.3637.3637,0,0,0-.5819,0l-.38791.194a14.2579,14.2579,0,0,0-1.26076.96982.83826.83826,0,0,0-.291.58187c-.097.194,0,.291.097.38793,0,0,.29094.38794.38793.48492Zm-1.5517,0h-.097a2.10218,2.10218,0,0,0-.9698,1.0668c-.097,1.45471-.097,1.64869-.48493,2.03662-.097.19393-.194.48489,0,.58187.48493.194,1.06681.38793,1.64868.58191.194,0,.291-.388.58189-1.45476a14.9618,14.9618,0,0,1,.48491-1.64866.35636.35636,0,0,0-.097-.291C155.07331,44.02958,154.39444,43.35069,154.10349,43.35069Z" fill="#d0d2d3"/><path d="M47.71486,42.96273a3.90135,3.90135,0,0,1-.58189,2.52156,3.3503,3.3503,0,0,1-4.65511.38791l-.38792-.38791a3.90123,3.90123,0,0,1-.58189-2.52156V34.8163H39.37446v8.72834A5.26218,5.26218,0,0,0,40.7322,47.036a5.68978,5.68978,0,0,0,7.75851,0,5.26223,5.26223,0,0,0,1.35774-3.49134V34.8163H47.71486ZM5.7219,40.24726l-1.45472-.48489c-.96982-.38793-1.5517-.96982-1.5517-1.64871a1.47817,1.47817,0,0,1,.58188-1.06681A2.28172,2.28172,0,0,1,4.84907,36.562a1.95485,1.95485,0,0,1,1.06679.291,2.337,2.337,0,0,1,.96982.96977L8.63134,36.853a3.94441,3.94441,0,0,0-3.78227-2.23063,4.03673,4.03673,0,0,0-3.00643.96985A3.36776,3.36776,0,0,0,.58188,38.11366c0,1.55171.96982,2.61851,2.90945,3.39438l1.35774.58186a4.53077,4.53077,0,0,1,.96981.48494,2.57,2.57,0,0,1,.58189.48491,2.029,2.029,0,0,1,.38793.58187,2.13559,2.13559,0,0,1,.097.77587,1.92965,1.92965,0,0,1-.67887,1.55169,2.49353,2.49353,0,0,1-3.58832-.194,3.21961,3.21961,0,0,1-.48491-1.55171L0,44.61144a4.04167,4.04167,0,0,0,1.45472,2.90943,4.489,4.489,0,0,0,3.10341,1.0668,4.91562,4.91562,0,0,0,3.20038-1.26076,4.18358,4.18358,0,0,0,1.35774-3.1034A3.4168,3.4168,0,0,0,8.24342,41.993,6.56108,6.56108,0,0,0,5.7219,40.24726Zm14.25627-3.20041a6.68353,6.68353,0,0,0,.29094,9.50424,7.48182,7.48182,0,0,0,5.237,1.9396,7.8365,7.8365,0,0,0,3.87926-.87285V45.09633a8.47727,8.47727,0,0,0-.96981.77587c-.29095.097-.67888.29093-.96982.38791a4.34147,4.34147,0,0,1-1.93963.38793,5.37423,5.37423,0,0,1-3.68529-1.45473,5.15291,5.15291,0,0,1,0-7.17661A5.07478,5.07478,0,0,1,25.40913,36.465h.097a6.27485,6.27485,0,0,1,3.87926,1.55171V35.59217a8.48211,8.48211,0,0,0-3.68529-1.0668A7.49613,7.49613,0,0,0,19.97817,37.04685Zm98.04822,11.24989H120.16V34.8163h-2.1336ZM69.34172,36.562a7.44831,7.44831,0,0,0-2.42454-1.35774,13.02017,13.02017,0,0,0-3.39435-.38793H60.61338V48.29674h2.90945a12.29087,12.29087,0,0,0,3.29737-.38791,5.4447,5.4447,0,0,0,2.42453-1.35774,6.06806,6.06806,0,0,0,2.32756-4.9461A6.616,6.616,0,0,0,69.34172,36.562ZM67.79,45.09633a3.87877,3.87877,0,0,1-1.74566.96982,9.565,9.565,0,0,1-2.32757.291H62.747V36.75592h.9698A6.17563,6.17563,0,0,1,67.79,38.0167,4.9082,4.9082,0,0,1,69.34172,41.605,4.65565,4.65565,0,0,1,67.693,45.19331Zm38.79257-3.87925a3.72461,3.72461,0,0,0,.87284-2.42453,3.76293,3.76293,0,0,0-1.45473-3.0064,6.41372,6.41372,0,0,0-3.97623-.96985H99.50294V48.29674h2.13359v-5.528h.291l4.07321,5.528h2.52153l-4.36417-5.7219a3.714,3.714,0,0,0,2.32756-1.26078Zm-4.946-.194V36.75592h.77586q2.90943,0,2.90944,2.03663c0,1.45471-.96982,2.23058-3.00643,2.23058Zm34.71936-6.98268-7.07966,14.25629h2.23059l1.64868-3.20041h6.01284l1.45471,3.20041h2.32758L136.2589,34.04045Zm-2.32756,9.11626,2.23057-4.55812,2.0366,4.55812Zm-52.56394,5.14h7.8555V46.35711H83.598V41.89593h5.52795v-1.9396H83.598V36.75592h5.72191V34.8163H81.56137V48.29674Z" fill="#d0d2d3"/></svg>